<?xml version="1.0" encoding="UTF-8" standalone="no"?>
<!-- Created with Inkscape (http://www.inkscape.org/) -->

<svg
   xmlns:dc="http://purl.org/dc/elements/1.1/"
   xmlns:cc="http://creativecommons.org/ns#"
   xmlns:rdf="http://www.w3.org/1999/02/22-rdf-syntax-ns#"
   xmlns:svg="http://www.w3.org/2000/svg"
   xmlns="http://www.w3.org/2000/svg"
   xmlns:sodipodi="http://sodipodi.sourceforge.net/DTD/sodipodi-0.dtd"
   xmlns:inkscape="http://www.inkscape.org/namespaces/inkscape"
   version="1.1"
   id="svg1217"
   xml:space="preserve"
   width="800"
   height="800"
   viewBox="0 0 800 800"
   sodipodi:docname="haircut-publicdomainvectors.org.svg"
   inkscape:version="0.92.4 (5da689c313, 2019-01-14)"><metadata
     id="metadata1223"><rdf:RDF><cc:Work
         rdf:about=""><dc:format>image/svg+xml</dc:format><dc:type
           rdf:resource="http://purl.org/dc/dcmitype/StillImage" /><dc:title></dc:title></cc:Work></rdf:RDF></metadata><defs
     id="defs1221"><clipPath
       clipPathUnits="userSpaceOnUse"
       id="clipPath1233"><path
         d="M 0,600 H 600 V 0 H 0 Z"
         id="path1231"
         inkscape:connector-curvature="0" /></clipPath></defs><sodipodi:namedview
     pagecolor="#ffffff"
     bordercolor="#666666"
     borderopacity="1"
     objecttolerance="10"
     gridtolerance="10"
     guidetolerance="10"
     inkscape:pageopacity="0"
     inkscape:pageshadow="2"
     inkscape:window-width="1920"
     inkscape:window-height="1018"
     id="namedview1219"
     showgrid="false"
     inkscape:zoom="0.74540179"
     inkscape:cx="427.11864"
     inkscape:cy="410.16949"
     inkscape:window-x="-8"
     inkscape:window-y="-8"
     inkscape:window-maximized="1"
     inkscape:current-layer="g1225" /><g
     id="g1225"
     inkscape:groupmode="layer"
     inkscape:label="haircut-publicdomainvectors.org"
     transform="matrix(1.3333333,0,0,-1.3333333,0,800)"><g
       id="g1227"><g
         id="g1229"
         clip-path="url(#clipPath1233)"><path
           d="m 142.307,394.431 -1.487,-6.337 60.165,-10.766 z m 5.228,17.688 -1.585,-6.309 87.167,-18.513 z m 56.566,-84.506 -0.007,0.006 c 1.045,-1.766 1.886,-3.473 2.383,-5.012 4.312,5.472 10.964,15.01 10.084,19.172 -1.582,7.472 -8.473,9.447 -12.528,9.959 -1.887,-5.483 -2.491,-13.049 0.068,-24.125 m 135.711,133.773 42.759,8.935 c -0.022,-2.554 -0.16,-5.611 -0.439,-9.115 l -47.049,-12.461 46.76,9.244 c -0.274,-2.799 -0.625,-5.822 -1.075,-9.061 l -50.414,-12.828 49.892,9.281 c -0.44,-2.865 -0.952,-5.87 -1.541,-8.995 l -53.081,-12.929 52.33,9.095 c -0.588,-2.894 -1.241,-5.881 -1.963,-8.946 l -55.097,-12.791 54.105,8.711 c -0.728,-2.914 -1.519,-5.887 -2.378,-8.92 l -54.712,-12.048 -1.744,-0.385 1.727,0.254 53.478,7.893 c -0.878,-2.934 -1.813,-5.909 -2.82,-8.923 l -52.293,-10.865 -3.398,-0.708 -1.421,-0.295 1.407,0.19 3.361,0.448 50.822,6.791 c -1.042,-2.964 -2.153,-5.958 -3.326,-8.973 l -49.147,-9.571 -3.395,-0.661 -3.389,-0.661 -1.065,-0.205 1.053,0.123 3.35,0.401 3.361,0.399 47.424,5.64 c -1.229,-3.006 -2.517,-6.028 -3.884,-9.061 l -45.204,-8.183 -3.391,-0.615 -3.387,-0.613 -4.051,-0.734 4.004,0.415 3.35,0.347 3.352,0.348 43.213,4.471 c -1.451,-3.067 -2.978,-6.139 -4.583,-9.215 l -40.303,-6.716 -3.385,-0.564 -3.38,-0.565 -6.998,-1.164 6.916,0.605 3.339,0.291 3.345,0.292 38.067,3.324 c -1.725,-3.154 -3.529,-6.3 -5.424,-9.431 l -34.32,-5.202 -3.378,-0.511 -3.373,-0.511 -9.899,-1.499 9.777,0.687 3.333,0.234 3.336,0.234 31.841,2.241 c -2.072,-3.271 -4.236,-6.518 -6.505,-9.736 l -27.014,-3.661 -3.37,-0.454 -3.366,-0.459 -12.762,-1.73 12.6,0.658 3.324,0.174 3.327,0.177 24.359,1.274 c -2.53,-3.423 -5.186,-6.802 -7.958,-10.13 l -18.079,-2.146 -3.36,-0.401 -3.357,-0.397 -15.586,-1.851 15.379,0.513 3.314,0.111 3.316,0.112 15.353,0.511 c -3.155,-3.623 -6.46,-7.176 -9.926,-10.639 l -7.103,-0.719 -3.351,-0.338 -3.347,-0.338 -18.365,-1.856 18.111,0.241 3.305,0.044 3.304,0.045 4.525,0.06 c -1.726,-1.66 -3.48,-3.304 -5.285,-4.917 -0.645,-4.114 -1.085,-6.879 -1.252,-7.933 V 167.563 l -1.874,-0.876 c -35.757,-16.737 -74.834,-24.53 -122.977,-24.53 -11.7,0 -24.204,0.444 -38.225,1.359 l -5.082,0.526 c -0.137,-0.065 -0.268,-0.126 -0.404,-0.193 -0.123,0.09 -0.248,0.178 -0.371,0.275 -0.892,0.693 -1.827,1.361 -2.724,2.104 -0.889,0.754 -1.789,1.518 -2.694,2.287 -1.833,1.522 -3.546,3.243 -5.329,4.892 -1.689,1.746 -3.449,3.434 -5.03,5.239 -1.639,1.754 -3.169,3.558 -4.638,5.315 -1.467,1.76 -2.826,3.511 -4.105,5.182 -1.249,1.691 -2.449,3.284 -3.471,4.81 -1.064,1.502 -1.969,2.923 -2.78,4.181 -0.819,1.253 -1.45,2.39 -2.014,3.306 -1.065,1.871 -1.641,2.959 -1.641,2.959 0,0 0.485,-1.131 1.39,-3.084 0.487,-0.96 1.029,-2.161 1.746,-3.482 0.706,-1.325 1.495,-2.829 2.439,-4.423 0.902,-1.619 1.97,-3.318 3.09,-5.126 1.146,-1.788 2.373,-3.669 3.706,-5.571 1.34,-1.896 2.736,-3.853 4.253,-5.772 1.455,-1.965 3.102,-3.832 4.681,-5.758 1.68,-1.838 3.296,-3.749 5.054,-5.474 0.869,-0.872 1.733,-1.739 2.586,-2.595 0.477,-0.465 0.968,-0.907 1.456,-1.346 -2.558,-1.169 -5.067,-2.239 -7.533,-3.234 -0.437,0.328 -0.866,0.649 -1.309,0.98 -0.961,0.799 -1.928,1.609 -2.907,2.424 -2.002,1.59 -3.829,3.437 -5.766,5.179 -1.81,1.862 -3.721,3.646 -5.412,5.579 -0.861,0.956 -1.716,1.902 -2.561,2.835 -0.814,0.965 -1.615,1.918 -2.406,2.856 -1.568,1.885 -3.014,3.769 -4.374,5.564 -1.328,1.82 -2.595,3.537 -3.677,5.181 -1.128,1.616 -2.074,3.152 -2.933,4.506 -0.858,1.354 -1.53,2.574 -2.125,3.561 -1.119,2.017 -1.734,3.182 -1.734,3.182 0,0 0.524,-1.209 1.485,-3.305 0.515,-1.031 1.098,-2.312 1.853,-3.733 0.755,-1.422 1.585,-3.039 2.591,-4.748 0.961,-1.737 2.097,-3.562 3.297,-5.498 1.229,-1.913 2.541,-3.93 3.979,-5.957 0.727,-1.011 1.465,-2.039 2.212,-3.08 0.784,-1.016 1.579,-2.043 2.378,-3.077 1.569,-2.101 3.366,-4.067 5.079,-6.119 1.839,-1.929 3.572,-3.974 5.504,-5.77 0.792,-0.773 1.575,-1.533 2.355,-2.292 -2.89,-1.074 -5.693,-2.027 -8.377,-2.849 -0.568,0.469 -1.136,0.945 -1.717,1.414 -2.144,1.682 -4.134,3.608 -6.194,5.466 -1.014,0.949 -1.967,1.959 -2.951,2.931 -0.985,0.973 -1.951,1.958 -2.856,2.984 -0.921,1.017 -1.836,2.022 -2.739,3.017 -0.865,1.029 -1.719,2.048 -2.558,3.048 -1.675,2.01 -3.204,4.027 -4.644,5.951 -1.408,1.942 -2.741,3.787 -3.883,5.546 -2.351,3.485 -4.102,6.522 -5.324,8.652 -1.163,2.164 -1.829,3.4 -1.829,3.4 0,0 0.573,-1.281 1.579,-3.525 1.066,-2.217 2.601,-5.392 4.707,-9.06 1.021,-1.853 2.225,-3.801 3.504,-5.866 1.31,-2.042 2.708,-4.191 4.252,-6.348 0.78,-1.077 1.568,-2.169 2.369,-3.277 0.844,-1.075 1.698,-2.165 2.559,-3.264 0.846,-1.111 1.755,-2.184 2.688,-3.251 0.93,-1.065 1.833,-2.165 2.799,-3.21 1.909,-1.993 3.761,-4.044 5.77,-5.896 -3.494,-0.938 -6.74,-1.653 -9.661,-2.135 -1.535,1.309 -3.045,2.658 -4.555,4.026 -1.106,0.976 -2.102,2.063 -3.158,3.088 -1.04,1.036 -2.087,2.063 -3.047,3.154 -0.982,1.077 -1.954,2.144 -2.915,3.197 -0.916,1.097 -1.823,2.178 -2.714,3.242 -1.777,2.136 -3.391,4.286 -4.911,6.335 -1.488,2.071 -2.889,4.04 -4.09,5.919 -2.471,3.719 -4.304,6.96 -5.588,9.231 -1.224,2.305 -1.925,3.624 -1.925,3.624 0,0 0.611,-1.363 1.674,-3.747 1.129,-2.358 2.744,-5.733 4.971,-9.636 1.078,-1.972 2.351,-4.047 3.71,-6.239 1.39,-2.168 2.874,-4.453 4.524,-6.736 0.827,-1.14 1.673,-2.3 2.526,-3.475 0.903,-1.138 1.819,-2.29 2.739,-3.449 0.903,-1.179 1.895,-2.299 2.888,-3.429 1.001,-1.117 1.948,-2.299 3.009,-3.375 0.745,-0.773 1.491,-1.544 2.238,-2.314 -3.004,-0.268 -5.536,-0.244 -7.423,0.101 -25.324,23.688 -31.866,41.307 -30.981,55.676 0.272,0.609 0.537,1.215 0.832,1.845 0.463,0.904 0.94,1.829 1.428,2.778 0.539,0.92 1.065,1.874 1.642,2.822 1.181,1.879 2.465,3.785 3.893,5.64 1.428,1.851 2.941,3.695 4.576,5.425 6.451,7.045 14.285,12.751 20.451,16.452 1.336,0.809 2.584,1.523 3.735,2.152 1.657,0.907 3.088,1.63 4.213,2.172 1.701,0.817 2.706,1.226 2.706,1.226 0,0 -1.027,-0.367 -2.771,-1.118 -1.148,-0.494 -2.612,-1.158 -4.31,-1.998 -1.176,-0.581 -2.456,-1.24 -3.826,-1.994 -6.347,-3.457 -14.485,-8.859 -21.368,-15.762 -1.743,-1.696 -3.368,-3.511 -4.914,-5.352 -1.543,-1.839 -2.951,-3.745 -4.253,-5.636 -0.338,-0.51 -0.652,-1.011 -0.971,-1.52 0.3,1.288 0.649,2.55 1.04,3.786 0.342,0.671 0.685,1.342 1.063,2.02 1.026,1.807 2.157,3.639 3.434,5.42 1.241,1.804 2.645,3.54 4.088,5.243 5.808,6.807 12.929,12.441 18.553,16.158 1.56,1.039 2.998,1.929 4.271,2.682 1.685,1.001 3.07,1.751 4.022,2.246 0.923,0.478 1.449,0.725 1.449,0.725 0,0 -0.539,-0.222 -1.486,-0.66 -0.977,-0.454 -2.392,-1.141 -4.124,-2.067 -1.31,-0.699 -2.791,-1.525 -4.402,-2.497 -5.816,-3.478 -13.246,-8.82 -19.492,-15.5 -1.16,-1.247 -2.277,-2.533 -3.347,-3.848 1.843,3.85 3.826,7.511 5.548,11.084 0.45,0.51 0.894,1.023 1.357,1.512 1.398,1.52 2.86,2.932 4.295,4.279 2.886,2.682 5.775,4.979 8.315,6.858 1.799,1.321 3.413,2.409 4.767,3.282 1.942,1.25 3.315,2.035 3.833,2.32 0.148,0.082 0.245,0.136 0.245,0.136 0,0 -0.1,-0.049 -0.252,-0.123 -0.531,-0.261 -1.94,-0.978 -3.939,-2.134 -1.401,-0.81 -3.074,-1.825 -4.943,-3.065 -2.643,-1.761 -5.661,-3.933 -8.707,-6.503 -1.108,-0.944 -2.23,-1.946 -3.34,-2.981 1.199,2.827 2.145,5.62 2.622,8.427 2.12,2.078 4.211,3.931 6.102,5.474 2.058,1.679 3.849,3 5.225,3.969 1.687,1.188 2.739,1.836 2.739,1.836 0,0 -1.078,-0.59 -2.824,-1.689 -1.429,-0.898 -3.293,-2.133 -5.453,-3.716 -1.729,-1.27 -3.635,-2.77 -5.591,-4.456 0.24,2.139 0.187,4.295 -0.246,6.49 0.864,0.857 1.712,1.674 2.511,2.408 2.371,2.175 4.367,3.783 5.641,4.764 0.916,0.706 1.47,1.097 1.47,1.097 0,0 -0.57,-0.356 -1.52,-1.009 -1.33,-0.91 -3.419,-2.412 -5.924,-4.468 -0.748,-0.614 -1.539,-1.295 -2.347,-2.005 -0.117,0.502 -0.252,1.005 -0.412,1.511 -0.471,1.472 -0.968,2.794 -1.485,3.998 0.304,0.329 0.613,0.662 0.906,0.968 2.942,3.067 5.268,5.056 6.014,5.677 0.161,0.137 0.276,0.226 0.276,0.226 0,0 -0.117,-0.085 -0.287,-0.209 -0.777,-0.574 -3.221,-2.424 -6.36,-5.332 -0.259,-0.242 -0.535,-0.507 -0.802,-0.762 -0.893,1.98 -1.848,3.592 -2.847,4.903 0.097,0.114 0.197,0.242 0.291,0.354 3.119,3.734 5.513,5.946 5.513,5.946 0,0 -2.525,-2.058 -5.892,-5.609 -0.079,-0.082 -0.165,-0.177 -0.244,-0.261 -1.304,1.61 -2.674,2.729 -4.061,3.462 0.312,0.452 0.619,0.892 0.919,1.308 2.678,3.743 4.786,6 4.786,6 0,0 -2.251,-2.11 -5.19,-5.689 -0.353,-0.427 -0.714,-0.88 -1.085,-1.351 -1.687,0.767 -3.389,1.009 -5.027,0.946 0.897,1.815 1.828,3.477 2.696,4.914 2.27,3.773 4.113,6.08 4.113,6.08 0,0 -1.997,-2.172 -4.538,-5.804 -1.062,-1.513 -2.222,-3.3 -3.349,-5.273 -1.471,-0.17 -2.866,-0.547 -4.128,-0.965 1.014,4.069 2.604,7.841 4.03,10.733 1.885,3.831 3.491,6.206 3.491,6.206 0,0 -1.769,-2.251 -3.939,-5.966 -1.758,-3.015 -3.789,-7.037 -5.137,-11.525 -0.524,-0.192 -1.006,-0.376 -1.45,-0.534 -0.032,0.552 -0.061,1.105 -0.064,1.661 0.024,5.5 1.681,10.963 3.186,14.87 1.518,3.932 2.91,6.394 2.91,6.394 0,0 -1.565,-2.352 -3.376,-6.194 -1.676,-3.581 -3.605,-8.518 -4.22,-13.895 -0.317,1.031 -0.602,2.089 -0.736,3.188 -0.785,5.453 0.354,11.11 1.488,15.148 1.152,4.073 2.354,6.652 2.354,6.652 0,0 -1.384,-2.481 -2.839,-6.497 -0.719,-2.007 -1.476,-4.39 -1.992,-7.029 -0.517,-2.632 -0.854,-5.523 -0.629,-8.448 0.075,-1.464 0.368,-2.92 0.735,-4.338 0.208,-0.653 0.43,-1.302 0.686,-1.935 -0.092,0.044 -0.17,0.104 -0.231,0.184 -11.868,15.458 -3.182,28.676 4.389,35.039 -8.432,1.547 -20.296,5.096 -22.319,12.956 l -0.258,1.007 0.373,0.971 c 2.495,6.486 22.044,53.169 25.734,61.979 l -0.66,1.359 c -2.964,2.54 -5.566,7.276 -7.259,12.365 0,0 0.504,0.149 1.355,0.391 l 0.132,0.66 c 0.672,3.321 16.631,81.539 31.936,99.359 12.666,14.744 25.585,21.434 31.429,23.909 -7.177,9.302 -30.737,29.792 -34.552,44.468 5.432,-10.958 35.743,-29.877 37.546,-34.003 -1.243,3.887 -10.407,34.896 -5.347,37.8 2.601,1.495 6.322,2.83 10.949,4.003 -0.062,-1.882 -0.058,-3.758 -0.004,-5.614 0.099,-3.947 0.432,-7.813 0.854,-11.532 0.83,-7.448 1.955,-14.33 2.766,-20.249 0.718,-5.068 1.205,-9.422 1.458,-12.757 0.041,-0.557 0.077,-1.091 0.108,-1.59 0.044,-0.601 0.075,-1.142 0.097,-1.653 0.042,-0.964 0.061,-1.778 0.071,-2.389 0.009,-0.367 0.016,-0.643 0.021,-0.871 0,-0.025 0,-0.054 0.003,-0.077 -0.281,0.004 -0.568,0.01 -0.841,0.014 -4.406,-0.334 -7.314,-0.572 -8.313,-0.658 -2.242,-0.783 -17.036,-6.426 -31.309,-23.041 -12.77,-14.871 -27.082,-80.223 -29.966,-93.879 7.153,1.819 16.583,3.842 18.585,2.454 4.803,-3.322 22.506,-13.829 22.506,-13.829 0,0 -12.473,2.711 -23.318,4.61 -8.766,1.533 -9.032,-5.253 -11.453,-8.342 l 0.346,-0.711 -0.568,-1.359 c -0.227,-0.535 -21.615,-51.564 -25.781,-62.004 1.534,-2.74 6.958,-4.957 12.897,-6.441 6.403,0.078 15.216,-0.16 19.283,-1.821 0.035,0.046 0.068,0.083 0.1,0.131 0.479,0.686 0.95,1.455 1.345,2.298 0.385,0.841 0.733,1.756 0.891,2.72 0.09,0.482 0.178,0.98 0.149,1.478 l 0.013,0.765 -0.122,0.76 c -0.046,0.249 -0.061,0.531 -0.128,0.768 l -0.232,0.698 c -0.089,0.242 -0.113,0.467 -0.247,0.742 l -0.469,0.844 -0.47,0.845 -0.035,0.04 -0.101,0.116 -0.2,0.247 c -0.099,0.195 -0.347,0.293 -0.528,0.441 -0.189,0.144 -0.384,0.297 -0.641,0.384 -0.916,0.498 -2.099,0.676 -3.209,0.851 -1.136,0.123 -2.268,0.154 -3.351,0.126 -1.083,-0.035 -2.114,-0.112 -3.064,-0.21 -3.812,-0.426 -6.321,-1.085 -6.321,-1.085 0,0 2.362,1.042 6.13,2.082 0.945,0.252 1.979,0.5 3.092,0.715 1.115,0.205 2.313,0.366 3.587,0.428 1.278,0 2.634,0.039 4.075,-0.434 0.361,-0.069 0.716,-0.238 1.076,-0.419 0.354,-0.192 0.735,-0.315 1.054,-0.624 l 0.492,-0.419 0.121,-0.107 0.06,0.079 c 0,0 3.896,-3.485 7.792,-6.969 1.932,-1.759 3.852,-3.529 5.26,-4.899 0.69,-0.705 1.302,-1.231 1.662,-1.698 0.368,-0.432 0.577,-0.682 0.577,-0.682 0,0 -0.248,0.214 -0.68,0.589 -0.401,0.383 -1.109,0.824 -1.883,1.402 -1.594,1.124 -3.76,2.572 -5.934,4.003 -1.187,0.766 -2.371,1.531 -3.47,2.239 l 0.063,-0.195 0.176,-1.1 c 0.145,-0.738 0.153,-1.464 0.139,-2.183 -0.008,-1.441 -0.28,-2.797 -0.623,-4.036 -0.353,-1.234 -0.808,-2.345 -1.285,-3.334 -0.88,-1.808 -1.813,-3.183 -2.56,-4.184 21.725,-9.418 41.225,-28.334 43.917,-58.954 0.493,0.404 0.983,0.832 1.468,1.281 l 8.563,-31.379 -5.22,32.354 c 1.268,-3.768 2.482,-7.289 3.596,-10.364 1.373,-3.795 2.591,-6.934 3.569,-9.082 0.486,-1.074 0.917,-1.9 1.267,-2.428 0.339,-0.55 0.677,-0.7 0.68,-0.673 -0.009,-0.022 -0.314,0.154 -0.585,0.728 -0.284,0.554 -0.612,1.413 -0.972,2.526 -0.719,2.222 -1.57,5.459 -2.499,9.367 -1.011,4.258 -2.116,9.323 -3.248,14.744 0.229,0.3 0.454,0.6 0.678,0.907 1.222,-2.911 2.417,-5.632 3.551,-8.031 1.629,-3.447 3.142,-6.262 4.435,-8.091 0.643,-0.912 1.237,-1.574 1.721,-1.937 0.479,-0.377 0.812,-0.409 0.812,-0.409 0,0 -0.327,0.076 -0.742,0.492 -0.421,0.406 -0.918,1.114 -1.435,2.077 -1.04,1.926 -2.189,4.859 -3.376,8.437 -1.001,3.011 -2.034,6.497 -3.07,10.237 0.504,0.774 1.003,1.571 1.492,2.388 0.989,-1.829 1.964,-3.536 2.917,-5.086 1.899,-3.101 3.724,-5.56 5.281,-7.028 0.774,-0.736 1.484,-1.205 2.002,-1.443 0.521,-0.24 0.824,-0.27 0.824,-0.27 0,0 -0.3,0.072 -0.774,0.366 -0.471,0.294 -1.093,0.829 -1.745,1.633 -1.318,1.601 -2.779,4.204 -4.24,7.456 -0.932,2.065 -1.868,4.407 -2.801,6.909 0.704,1.27 1.392,2.594 2.07,3.955 0.824,-1.175 1.643,-2.3 2.45,-3.314 2.171,-2.746 4.291,-4.815 6.013,-5.936 0.858,-0.564 1.597,-0.891 2.114,-1.058 0.521,-0.166 0.805,-0.204 0.805,-0.204 0,0 -0.281,0.077 -0.763,0.305 -0.485,0.232 -1.155,0.643 -1.904,1.292 -1.506,1.293 -3.271,3.543 -5.013,6.47 -0.861,1.44 -1.725,3.039 -2.583,4.755 0.806,1.712 1.593,3.479 2.359,5.304 0.774,-0.858 1.543,-1.68 2.302,-2.417 2.426,-2.394 4.772,-4.07 6.566,-4.922 0.894,-0.433 1.634,-0.676 2.142,-0.81 0.512,-0.133 0.786,-0.172 0.786,-0.172 0,0 -0.272,0.077 -0.751,0.277 -0.48,0.198 -1.168,0.534 -1.968,1.07 -1.613,1.058 -3.629,2.963 -5.638,5.572 -0.845,1.083 -1.691,2.306 -2.535,3.597 0.818,2.035 1.615,4.127 2.387,6.273 0.848,-0.749 1.691,-1.46 2.517,-2.09 2.656,-2.054 5.138,-3.4 6.958,-4.077 0.907,-0.341 1.651,-0.544 2.15,-0.656 0.504,-0.106 0.773,-0.161 0.773,-0.161 0,0 -0.258,0.092 -0.743,0.267 -0.484,0.181 -1.167,0.476 -2.004,0.932 -1.671,0.903 -3.864,2.522 -6.123,4.837 -0.918,0.925 -1.843,1.984 -2.768,3.105 0.783,2.257 1.54,4.559 2.27,6.906 1.04,-0.754 2.068,-1.466 3.057,-2.074 2.841,-1.773 5.418,-2.869 7.265,-3.442 0.922,-0.292 1.663,-0.477 2.165,-0.57 0.505,-0.101 0.774,-0.156 0.774,-0.156 0,0 -0.261,0.091 -0.745,0.261 -0.489,0.166 -1.181,0.447 -2.039,0.856 -1.721,0.808 -4.052,2.215 -6.532,4.292 -1.078,0.879 -2.177,1.903 -3.281,3.007 0.716,2.384 1.412,4.801 2.075,7.253 1.324,-0.816 2.619,-1.565 3.859,-2.182 3.013,-1.552 5.681,-2.482 7.564,-3.006 0.949,-0.254 1.695,-0.432 2.207,-0.523 0.51,-0.098 0.784,-0.152 0.784,-0.152 0,0 -0.262,0.091 -0.756,0.259 -0.497,0.16 -1.209,0.439 -2.097,0.813 -1.772,0.765 -4.23,2.027 -6.92,3.916 -1.309,0.9 -2.666,1.953 -4.042,3.122 0.646,2.454 1.269,4.93 1.863,7.427 1.686,-0.898 3.318,-1.69 4.851,-2.348 3.192,-1.383 5.957,-2.239 7.906,-2.729 1.961,-0.479 3.086,-0.654 3.086,-0.654 0,0 -1.105,0.329 -2.955,1.055 -1.853,0.736 -4.435,1.934 -7.338,3.683 -1.593,0.952 -3.276,2.087 -5.002,3.352 0.574,2.487 1.123,4.986 1.644,7.49 2.105,-0.982 4.129,-1.844 5.997,-2.551 3.389,-1.27 6.283,-2.087 8.327,-2.56 2.046,-0.477 3.221,-0.663 3.221,-0.663 0,0 -1.152,0.339 -3.1,1.065 -1.951,0.724 -4.687,1.889 -7.819,3.548 -1.918,1.02 -3.99,2.248 -6.121,3.623 0.503,2.499 0.981,4.998 1.433,7.485 2.568,-1.064 5.03,-1.994 7.27,-2.745 3.608,-1.214 6.675,-2.001 8.831,-2.482 2.159,-0.485 3.396,-0.689 3.396,-0.689 0,0 -1.212,0.354 -3.279,1.091 -2.072,0.736 -4.995,1.878 -8.377,3.496 -2.284,1.085 -4.786,2.401 -7.383,3.889 0.439,2.503 0.845,4.987 1.231,7.453 3.088,-1.142 6.024,-2.139 8.669,-2.933 3.863,-1.178 7.127,-1.965 9.423,-2.465 2.293,-0.502 3.609,-0.727 3.609,-0.727 0,0 -1.289,0.376 -3.499,1.13 -2.212,0.755 -5.347,1.9 -9.011,3.494 -2.688,1.157 -5.663,2.56 -8.785,4.159 0.374,2.496 0.72,4.962 1.036,7.392 3.664,-1.208 7.116,-2.263 10.208,-3.105 4.144,-1.156 7.643,-1.961 10.088,-2.487 2.455,-0.494 3.856,-0.778 3.856,-0.778 0,0 -1.365,0.431 -3.75,1.184 -2.373,0.784 -5.737,1.947 -9.709,3.526 -3.133,1.23 -6.638,2.731 -10.342,4.419 0.311,2.487 0.592,4.932 0.839,7.316 4.292,-1.251 8.331,-2.371 11.9,-3.275 3.808,-0.979 7.086,-1.727 9.599,-2.27 3.421,-4.026 10.832,-9.704 18.664,-18.133 2.984,2.66 9.165,2.721 10.832,6.696 1.095,2.61 -4.416,11.552 -4.416,11.552 l -0.195,8.544 c 0,0 1.644,14.413 16.509,19.3 0.865,0.409 1.735,0.724 2.671,0.98 1.43,0.367 2.948,0.516 4.469,0.34 1.519,-0.175 3.011,-0.716 4.294,-1.513 1.291,-0.802 2.366,-1.853 3.244,-2.992 1.755,-2.296 2.841,-4.883 3.641,-7.476 0.1,-0.343 0.2,-0.61 0.301,-1.016 l 0.228,-0.957 c 0.134,-0.66 0.278,-1.406 0.351,-2.077 0.181,-1.37 0.208,-2.734 0.211,-4.09 -0.115,-5.424 -1.258,-10.664 -2.735,-15.748 -1.512,-5.084 -3.373,-10.029 -5.598,-14.834 l -0.101,-0.219 -0.236,-0.042 c -1.812,-0.327 -3.639,-0.868 -5.386,-1.543 -1.747,-0.687 -3.44,-1.528 -4.992,-2.589 -1.552,-1.055 -2.961,-2.339 -4.069,-3.867 -1.107,-1.528 -1.862,-3.305 -2.208,-5.174 0.271,1.88 0.957,3.707 2.022,5.304 1.061,1.599 2.447,2.968 3.989,4.11 1.545,1.145 3.238,2.077 4.996,2.85 1.685,0.728 3.413,1.316 5.226,1.738 1.964,4.76 3.596,9.689 4.86,14.675 1.252,5.048 2.148,10.222 2.043,15.328 -0.053,1.269 -0.128,2.535 -0.346,3.769 -0.097,0.629 -0.225,1.171 -0.372,1.794 l -0.268,0.95 c -0.067,0.228 -0.197,0.578 -0.292,0.864 -0.815,2.392 -1.902,4.688 -3.413,6.53 -1.494,1.857 -3.504,3.063 -5.7,3.239 -1.097,0.093 -2.228,-0.05 -3.334,-0.372 -1.083,-0.321 -2.231,-0.843 -3.097,-1.426 l -0.006,0.01 c -1.391,-1.725 -2.716,-3.789 -3.778,-6.327 4.519,-0.651 11.799,-2.986 13.533,-11.182 1.179,-5.565 -7.839,-17.358 -11.229,-21.547 0.036,-0.343 0.051,-0.677 0.029,-0.986 -0.38,-5.16 -11.048,-10.917 -17.326,-13.872 -1.208,-11.05 -7.708,-27.802 9.121,-23.299 0.204,0.118 0.412,0.242 0.613,0.361 10.168,5.897 40.315,46.998 38.503,71.845 -1.027,14.035 -16.134,21.902 -26.89,21.902 -10.753,0 -23.408,-18.707 -23.408,-18.707 3.128,13.14 13.462,21.613 24.414,24.757 l -69.366,14.131 1.569,6.315 68.548,-20.234 c 10.174,2.691 20.752,0.791 26.488,-6.262 16.541,-20.333 12.805,-36.479 -7.861,-66.43 -7.994,-11.585 -17.041,-20.184 -25.445,-26.485 6.432,-18.328 8.151,-42.501 -1.672,-74.652 -0.111,-0.2 -0.235,-0.391 -0.348,-0.592 l -7.515,8.183 6.328,-10.205 c -1.766,-3.011 -3.621,-5.941 -5.585,-8.762 -3.356,3.641 -6.65,7.339 -9.087,10.15 -1.215,1.424 -2.227,2.612 -2.935,3.444 -0.701,0.832 -1.058,1.355 -1.058,1.355 0,0 0.262,-0.562 0.824,-1.51 0.567,-0.94 1.378,-2.282 2.347,-3.891 1.973,-3.202 4.656,-7.434 7.418,-11.63 0.158,-0.241 0.318,-0.48 0.477,-0.72 -1.772,-2.415 -3.602,-4.761 -5.498,-7.034 -1.093,1.129 -2.195,2.286 -3.294,3.465 -3.85,4.133 -7.574,8.415 -10.282,11.693 -1.351,1.638 -2.468,3.023 -3.204,4.012 -0.377,0.491 -0.666,0.886 -0.841,1.172 -0.184,0.277 -0.284,0.426 -0.284,0.426 0,0 0.076,-0.161 0.22,-0.462 0.131,-0.305 0.362,-0.735 0.665,-1.281 0.599,-1.104 1.505,-2.63 2.616,-4.456 2.225,-3.653 5.313,-8.445 8.573,-13.144 1.06,-1.524 2.133,-3.025 3.205,-4.489 -1.778,-2.019 -3.603,-3.971 -5.464,-5.869 -1.99,1.898 -4.06,3.95 -6.061,6.097 -4.336,4.597 -8.465,9.432 -11.42,13.165 -1.477,1.869 -2.689,3.451 -3.472,4.587 -0.409,0.564 -0.702,1.027 -0.896,1.347 -0.197,0.317 -0.303,0.486 -0.303,0.486 0,0 0.082,-0.18 0.238,-0.519 0.15,-0.342 0.382,-0.838 0.718,-1.451 0.644,-1.25 1.643,-2.972 2.878,-5.029 2.474,-4.108 5.972,-9.462 9.751,-14.661 1.771,-2.469 3.639,-4.867 5.466,-7.113 -1.81,-1.747 -3.653,-3.43 -5.518,-5.07 -0.322,0.275 -0.636,0.549 -0.965,0.827 -1.182,1.113 -2.443,2.222 -3.658,3.43 -1.214,1.209 -2.47,2.42 -3.66,3.702 -4.836,5.051 -9.371,10.445 -12.57,14.639 -1.608,2.091 -2.893,3.884 -3.736,5.166 -0.442,0.631 -0.741,1.163 -0.955,1.516 -0.211,0.355 -0.326,0.545 -0.326,0.545 0,0 0.091,-0.202 0.261,-0.577 0.172,-0.378 0.405,-0.936 0.776,-1.619 0.699,-1.386 1.771,-3.322 3.139,-5.599 2.716,-4.572 6.626,-10.493 10.934,-16.181 1.056,-1.436 2.19,-2.819 3.287,-4.197 1.101,-1.378 2.265,-2.674 3.354,-3.963 0.218,-0.232 0.424,-0.459 0.637,-0.69 -1.873,-1.56 -3.773,-3.05 -5.681,-4.509 -0.589,0.486 -1.179,0.987 -1.795,1.484 -1.359,1.143 -2.707,2.404 -4.094,3.668 -1.333,1.325 -2.753,2.613 -4.058,4.018 -2.69,2.734 -5.236,5.623 -7.581,8.371 -2.321,2.767 -4.428,5.413 -6.149,7.744 -1.744,2.317 -3.09,4.322 -4,5.744 -0.474,0.702 -0.783,1.299 -1.017,1.686 -0.229,0.393 -0.351,0.602 -0.351,0.602 0,0 0.098,-0.221 0.285,-0.636 0.194,-0.41 0.437,-1.032 0.835,-1.783 0.764,-1.523 1.9,-3.674 3.403,-6.176 1.476,-2.517 3.308,-5.391 5.353,-8.423 2.068,-3.014 4.331,-6.204 6.772,-9.271 1.18,-1.567 2.488,-3.036 3.71,-4.538 1.289,-1.449 2.543,-2.894 3.831,-4.235 0.364,-0.364 0.712,-0.722 1.064,-1.084 -1.978,-1.43 -3.964,-2.788 -5.956,-4.113 -0.665,0.509 -1.334,1.031 -2.014,1.584 -1.54,1.171 -2.981,2.578 -4.535,3.907 -1.482,1.407 -3.011,2.825 -4.469,4.32 -2.937,2.968 -5.735,6.091 -8.269,9.101 -2.517,3.024 -4.787,5.925 -6.623,8.491 -1.872,2.547 -3.294,4.761 -4.266,6.325 -0.503,0.775 -0.828,1.428 -1.083,1.851 -0.245,0.431 -0.373,0.663 -0.373,0.663 0,0 0.106,-0.243 0.309,-0.694 0.211,-0.447 0.471,-1.126 0.897,-1.947 0.825,-1.662 2.037,-4.022 3.664,-6.753 1.593,-2.752 3.59,-5.885 5.836,-9.179 2.259,-3.283 4.786,-6.716 7.487,-10.03 1.337,-1.667 2.761,-3.268 4.146,-4.862 1.465,-1.524 2.814,-3.116 4.301,-4.499 0.318,-0.311 0.63,-0.594 0.944,-0.897 -2.125,-1.332 -4.248,-2.602 -6.368,-3.82 -0.509,0.396 -1.018,0.788 -1.54,1.192 -1.684,1.251 -3.298,2.709 -4.976,4.151 -0.061,0.051 -0.117,0.109 -0.178,0.163 -1.591,1.421 -3.159,2.928 -4.716,4.447 -1.573,1.619 -3.182,3.213 -4.655,4.887 -0.011,0.013 -0.023,0.026 -0.033,0.039 -1.509,1.621 -2.914,3.288 -4.279,4.902 -2.712,3.279 -5.146,6.439 -7.1,9.24 -1,1.387 -1.862,2.693 -2.621,3.858 -0.787,1.152 -1.372,2.203 -1.91,3.049 -0.522,0.851 -0.878,1.556 -1.148,2.018 -0.26,0.468 -0.398,0.719 -0.398,0.719 0,0 0.114,-0.262 0.334,-0.751 0.226,-0.486 0.517,-1.217 0.964,-2.112 0.457,-0.89 0.958,-2.008 1.638,-3.228 0.658,-1.232 1.407,-2.621 2.284,-4.101 1.711,-2.99 3.872,-6.381 6.317,-9.936 1.241,-1.767 2.522,-3.598 3.915,-5.389 1.346,-1.834 2.836,-3.598 4.295,-5.395 1.506,-1.757 3.028,-3.51 4.595,-5.175 0.423,-0.433 0.838,-0.861 1.256,-1.293 1.157,-1.203 2.309,-2.39 3.513,-3.465 0.066,-0.064 0.134,-0.123 0.199,-0.184 0.024,-0.021 0.043,-0.041 0.067,-0.063 l 4.279,2.349 c -0.006,0.005 -0.011,0.009 -0.018,0.013 11.764,-0.687 22.461,-1.023 32.532,-1.023 46.313,0 83.987,7.329 118.344,23.048 v 62.344 l -17.353,3.28 17.353,1.681 v 6.003 l -21.421,3.681 21.421,1.893 v 4.672 l -24.13,4.136 24.13,2.123 v 6.009 l -31.452,3.481 31.452,2.417 v 5.995 l -34.708,5.4 34.708,0.264 0.041,0.248 c 0.023,0.147 0.251,1.582 0.64,4.055 l -33.015,1.102 c 14.642,35.793 15.155,71.773 -12.621,96.054 -19.684,17.209 -112.359,22.785 -100.808,33.585 l 77.384,-8.641 -74.38,11.58 c 0.424,0.546 0.828,1.145 1.219,1.783 17.212,-1.649 34.258,-3.281 47.173,-4.518 6.737,-0.592 12.352,-1.087 16.28,-1.432 1.966,-0.14 3.513,-0.248 4.568,-0.324 1.055,-0.061 1.619,-0.038 1.619,-0.038 0,0 -0.564,0.002 -1.613,0.111 -1.049,0.124 -2.588,0.302 -4.547,0.53 -3.908,0.52 -9.491,1.267 -16.19,2.162 -12.547,1.776 -29.017,4.107 -45.73,6.473 0.314,0.683 0.615,1.399 0.901,2.141 15.411,-1.251 30.468,-2.459 42.067,-3.289 6.471,-0.462 11.867,-0.805 15.648,-0.98 1.889,-0.09 3.375,-0.131 4.391,-0.135 1.014,-0.01 1.554,0.037 1.554,0.037 0,0 -0.54,-0.021 -1.551,0.035 -1.012,0.052 -2.494,0.166 -4.374,0.343 -3.766,0.349 -9.133,0.948 -15.572,1.714 -11.361,1.352 -26.052,3.227 -41.135,5.168 0.255,0.805 0.5,1.634 0.733,2.485 13.817,-0.881 27.172,-1.705 37.617,-2.222 6.222,-0.307 11.414,-0.505 15.049,-0.558 3.637,-0.067 5.711,0.084 5.711,0.084 0,0 -2.077,-0.051 -5.7,0.197 -3.623,0.23 -8.79,0.679 -14.986,1.293 -10.279,1.012 -23.389,2.468 -36.979,4.006 0.216,0.923 0.42,1.865 0.613,2.824 12.346,-0.548 24.168,-1.042 33.547,-1.292 5.995,-0.165 10.993,-0.226 14.492,-0.183 3.501,0.035 5.493,0.205 5.493,0.205 0,0 -1.997,-0.07 -5.491,0.076 -3.489,0.133 -8.47,0.448 -14.441,0.916 -9.265,0.721 -20.916,1.799 -33.097,2.967 0.184,1.047 0.354,2.107 0.512,3.181 10.942,-0.262 21.342,-0.474 29.713,-0.511 5.789,-0.03 10.613,0.027 13.987,0.143 3.376,0.109 5.296,0.279 5.296,0.279 0,0 -1.928,-0.069 -5.299,0 -3.369,0.061 -8.182,0.259 -13.951,0.596 -8.291,0.473 -18.57,1.225 -29.395,2.057 0.151,1.177 0.291,2.361 0.415,3.553 9.591,-0.021 18.642,-0.01 26.05,0.114 5.602,0.087 10.271,0.241 13.536,0.404 3.266,0.161 5.125,0.323 5.125,0.323 0,0 -1.867,-0.061 -5.133,-0.044 -3.264,0.016 -7.926,0.116 -13.517,0.334 -7.352,0.278 -16.321,0.754 -25.828,1.294 0.118,1.313 0.224,2.629 0.31,3.939 8.271,0.162 16.036,0.338 22.505,0.569 10.899,0.355 18.142,0.959 18.142,0.959 0,0 -7.262,-0.197 -18.149,0.058 -6.432,0.132 -14.145,0.387 -22.361,0.686 0.08,1.455 0.146,2.903 0.192,4.328 6.979,0.283 13.511,0.561 19.063,0.848 10.652,0.529 17.735,1.13 17.735,1.13 0,0 -7.105,-0.192 -17.757,-0.113 -5.534,0.031 -12.037,0.127 -18.991,0.243 0.035,1.603 0.048,3.17 0.042,4.699 5.722,0.351 11.086,0.679 15.737,0.965 10.477,0.667 17.449,1.257 17.449,1.257 0,0 -6.994,-0.183 -17.486,-0.24 -4.646,-0.015 -10.001,-0.032 -15.713,-0.051 -0.029,1.762 -0.081,3.449 -0.157,5.05 4.522,0.339 8.764,0.65 12.539,0.938 10.377,0.812 17.296,1.352 17.296,1.352 0,0 -6.937,-0.134 -17.344,-0.336 -3.788,-0.066 -8.048,-0.129 -12.588,-0.202 -0.119,1.95 -0.271,3.757 -0.456,5.339 3.411,0.297 6.646,0.57 9.579,0.819 10.374,0.858 17.291,1.429 17.291,1.429 0,0 -6.939,-0.166 -17.344,-0.415 -2.981,-0.077 -6.266,-0.161 -9.733,-0.256 -0.441,3.047 -1.012,5.1 -1.666,5.688 -2.741,2.467 -25.176,3.27 -39.522,3.532 v 0.08 c 0,0.228 0,0.505 0.003,0.87 0.004,0.612 0.007,1.428 -0.011,2.396 -0.011,0.51 -0.027,1.05 -0.056,1.652 -0.017,0.501 -0.038,1.038 -0.067,1.598 -0.17,3.344 -0.543,7.716 -1.133,12.807 -0.661,5.943 -1.61,12.856 -2.246,20.284 -0.324,3.713 -0.558,7.557 -0.555,11.454 -0.009,1.975 0.039,3.967 0.168,5.957 4.847,1.145 10.597,2.123 17.101,2.911 -0.548,-3.6 -0.741,-7.226 -0.766,-10.782 -0.044,-3.794 0.154,-7.517 0.427,-11.106 0.549,-7.18 1.425,-13.83 2.087,-19.533 0.337,-2.853 0.626,-5.467 0.846,-7.789 0.1,-1.094 0.193,-2.118 0.27,-3.075 0.087,-1.072 0.157,-2.062 0.198,-2.944 0.006,-0.104 0.011,-0.194 0.017,-0.293 0.082,-1.349 0.114,-2.442 0.127,-3.262 0.002,-0.109 0.006,-0.232 0.006,-0.33 0.019,-0.899 0.028,-1.377 0.028,-1.377 0,0 0.003,0.48 0.009,1.377 0,0.099 0.003,0.222 0.003,0.332 0.008,0.822 0.005,1.916 -0.04,3.268 -0.004,0.098 -0.006,0.186 -0.01,0.289 -0.017,0.886 -0.062,1.879 -0.12,2.954 -0.052,0.96 -0.117,1.987 -0.19,3.087 -0.157,2.329 -0.377,4.955 -0.637,7.814 -0.512,5.725 -1.209,12.392 -1.566,19.545 -0.176,3.576 -0.274,7.274 -0.132,11.017 0.122,3.657 0.419,7.367 1.101,10.999 5.338,0.608 11.132,1.102 17.312,1.464 -0.263,-1.11 -0.508,-2.224 -0.721,-3.34 -1.347,-7.333 -1.411,-14.773 -1.16,-21.67 0.275,-6.91 0.896,-13.318 1.401,-18.808 0.323,-3.439 0.59,-6.521 0.783,-9.132 0.088,-1.185 0.158,-2.26 0.212,-3.24 0.019,-0.307 0.035,-0.619 0.05,-0.904 0.05,-0.901 0.08,-1.68 0.1,-2.355 0.017,-0.529 0.024,-0.998 0.028,-1.376 0.016,-0.862 0.025,-1.321 0.025,-1.321 0,0 0.004,0.459 0.011,1.321 0.008,0.38 0.011,0.851 0.011,1.38 0,0.674 -0.011,1.454 -0.035,2.355 -0.005,0.287 -0.016,0.6 -0.023,0.909 -0.028,0.981 -0.067,2.058 -0.123,3.244 -0.123,2.62 -0.304,5.709 -0.532,9.16 -0.354,5.5 -0.796,11.919 -0.881,18.792 -0.061,6.859 0.218,14.222 1.728,21.331 0.278,1.26 0.596,2.513 0.938,3.752 5.511,0.297 11.3,0.495 17.311,0.586 -0.68,-2.111 -1.237,-4.27 -1.699,-6.44 -0.755,-3.485 -1.173,-7.024 -1.46,-10.501 -0.303,-3.479 -0.362,-6.911 -0.387,-10.224 0.011,-6.629 0.367,-12.796 0.708,-18.071 0.18,-2.793 0.346,-5.328 0.481,-7.563 0.073,-1.169 0.134,-2.248 0.183,-3.239 0.036,-0.691 0.068,-1.352 0.092,-1.948 0.018,-0.472 0.035,-0.903 0.049,-1.311 0.032,-0.924 0.05,-1.695 0.052,-2.268 0.015,-0.826 0.021,-1.265 0.021,-1.265 0,0 0.006,0.441 0.016,1.265 0.013,0.576 0.019,1.345 0.013,2.273 -0.002,0.407 -0.006,0.837 -0.013,1.309 -0.006,0.597 -0.018,1.26 -0.034,1.954 -0.022,0.992 -0.053,2.072 -0.089,3.245 -0.069,2.239 -0.162,4.778 -0.265,7.572 -0.186,5.282 -0.365,11.445 -0.184,18.031 0.12,3.291 0.275,6.689 0.675,10.116 0.381,3.424 0.895,6.889 1.731,10.27 0.565,2.319 1.227,4.615 2.046,6.825 5.579,0.063 11.339,0.034 17.225,-0.084 -1.14,-2.846 -2.024,-5.817 -2.722,-8.817 -0.806,-3.318 -1.321,-6.686 -1.725,-10.002 -0.418,-3.318 -0.604,-6.597 -0.769,-9.768 -0.247,-6.344 -0.149,-12.26 0.009,-17.323 0.082,-2.233 0.156,-4.291 0.226,-6.16 0.04,-1.162 0.081,-2.248 0.116,-3.246 0.036,-1.032 0.07,-1.983 0.1,-2.821 0.006,-0.154 0.009,-0.289 0.015,-0.436 0.078,-2.672 0.075,-4.203 0.075,-4.203 0,0 0.047,1.531 0.051,4.206 0.002,0.147 0.002,0.283 0.002,0.435 -0.006,0.839 -0.013,1.792 -0.02,2.826 -0.003,1 -0.011,2.087 -0.018,3.249 -0.012,1.869 -0.024,3.925 -0.037,6.157 -0.008,5.061 0.073,10.963 0.51,17.257 0.257,3.143 0.541,6.389 1.052,9.652 0.498,3.262 1.104,6.563 1.991,9.782 0.835,3.157 1.868,6.261 3.194,9.167 5.571,-0.133 11.251,-0.348 16.998,-0.651 -0.192,-0.438 -0.394,-0.875 -0.572,-1.321 -1.251,-2.978 -2.269,-6.093 -3.074,-9.249 -3.283,-12.656 -3.686,-25.701 -3.776,-35.366 -0.01,-1.767 -0.003,-3.422 0.008,-4.954 0.01,-1.159 0.024,-2.242 0.035,-3.248 0.018,-1.21 0.036,-2.296 0.05,-3.257 0,-0.081 0.003,-0.169 0.003,-0.246 0.032,-2.824 0.05,-4.439 0.05,-4.439 0,0 0.034,1.615 0.09,4.439 0.002,0.079 0.003,0.169 0.005,0.249 0.015,0.961 0.033,2.049 0.054,3.26 0.017,1.005 0.04,2.09 0.065,3.25 0.037,1.528 0.084,3.176 0.148,4.935 0.39,9.638 1.219,22.633 4.833,34.939 0.889,3.072 1.978,6.078 3.279,8.919 0.293,0.67 0.606,1.326 0.931,1.975 5.535,-0.311 11.126,-0.705 16.737,-1.18 -0.472,-0.969 -0.925,-1.952 -1.338,-2.961 -1.178,-2.845 -2.22,-5.789 -3.063,-8.784 -3.454,-11.98 -4.547,-24.382 -5.01,-33.615 -0.069,-1.402 -0.117,-2.723 -0.157,-3.973 -0.038,-1.158 -0.064,-2.244 -0.081,-3.254 -0.024,-1.201 -0.036,-2.291 -0.043,-3.255 -0.002,-0.239 -0.003,-0.481 -0.004,-0.703 0,-2.698 0.001,-4.241 0.001,-4.241 0,0 0.051,1.541 0.139,4.24 0.009,0.223 0.017,0.465 0.026,0.706 0.041,0.965 0.089,2.053 0.153,3.256 0.049,1.01 0.113,2.096 0.186,3.253 0.081,1.241 0.176,2.55 0.287,3.938 0.763,9.188 2.271,21.51 6.059,33.17 0.924,2.915 2.039,5.761 3.276,8.485 0.546,1.226 1.156,2.401 1.783,3.553 5.463,-0.482 10.939,-1.049 16.397,-1.691 -0.649,-1.315 -1.265,-2.665 -1.865,-4.031 -1.117,-2.712 -2.177,-5.49 -3.049,-8.326 -3.598,-11.319 -5.328,-23.058 -6.179,-31.85 -0.11,-1.138 -0.206,-2.227 -0.287,-3.262 -0.092,-1.159 -0.165,-2.243 -0.224,-3.254 -0.071,-1.196 -0.125,-2.289 -0.163,-3.251 -0.12,-3.117 -0.093,-4.936 -0.093,-4.936 0,0 0.035,1.822 0.264,4.934 0.072,0.963 0.163,2.055 0.276,3.25 0.096,1.012 0.205,2.095 0.339,3.252 0.114,1.02 0.245,2.092 0.394,3.211 1.146,8.73 3.283,20.362 7.213,31.389 0.956,2.761 2.093,5.45 3.271,8.058 0.755,1.559 1.538,3.072 2.352,4.546 5.399,-0.659 10.771,-1.395 16.087,-2.218 -0.735,-1.469 -1.446,-2.965 -2.125,-4.5 -1.086,-2.571 -2.143,-5.196 -3.047,-7.873 -3.718,-10.677 -6.013,-21.739 -7.267,-30.071 -0.151,-1.009 -0.289,-1.98 -0.412,-2.904 -0.152,-1.158 -0.279,-2.239 -0.388,-3.246 -0.13,-1.202 -0.232,-2.291 -0.306,-3.248 -0.019,-0.247 -0.039,-0.494 -0.054,-0.722 -0.173,-2.454 -0.152,-3.858 -0.152,-3.858 0,0 0.031,1.407 0.293,3.846 0.022,0.231 0.05,0.481 0.079,0.73 0.11,0.955 0.251,2.041 0.427,3.241 0.146,1.006 0.313,2.088 0.508,3.243 0.153,0.904 0.321,1.849 0.505,2.832 1.548,8.256 4.242,19.189 8.292,29.595 0.989,2.609 2.123,5.156 3.279,7.635 0.83,1.703 1.695,3.348 2.591,4.944 5.326,-0.849 10.585,-1.782 15.751,-2.803 -0.703,-1.406 -1.387,-2.835 -2.037,-4.306 -1.081,-2.423 -2.101,-4.915 -3.05,-7.43 -3.823,-10.054 -6.597,-20.437 -8.271,-28.293 -0.22,-1.052 -0.418,-2.05 -0.599,-3.006 -0.223,-1.168 -0.407,-2.23 -0.568,-3.232 -0.195,-1.205 -0.359,-2.309 -0.47,-3.234 -0.005,-0.029 -0.009,-0.064 -0.012,-0.093 -0.29,-2.328 -0.271,-3.669 -0.271,-3.669 0,0 0.032,1.343 0.409,3.65 0.004,0.032 0.012,0.072 0.017,0.102 0.147,0.924 0.352,2.025 0.594,3.227 0.202,0.999 0.426,2.057 0.694,3.222 0.214,0.927 0.445,1.898 0.702,2.918 1.964,7.762 5.123,17.999 9.284,27.802 1.034,2.451 2.135,4.874 3.29,7.218 0.786,1.613 1.616,3.167 2.459,4.687 5.259,-1.071 10.406,-2.235 15.413,-3.49 -1.623,-3.323 -3.174,-6.821 -4.633,-10.346 -3.907,-9.454 -7.105,-19.162 -9.17,-26.529 -0.38,-1.356 -0.708,-2.6 -1.006,-3.78 -0.291,-1.152 -0.551,-2.237 -0.761,-3.193 -0.159,-0.731 -0.301,-1.411 -0.413,-2.012 -0.082,-0.441 -0.148,-0.836 -0.203,-1.202 -0.081,-0.54 -0.142,-1.006 -0.181,-1.36 -0.031,-0.596 -0.048,-0.914 -0.048,-0.914 0,0 0.031,0.317 0.084,0.912 0.053,0.353 0.131,0.814 0.237,1.352 0.067,0.361 0.149,0.749 0.248,1.185 0.136,0.601 0.307,1.283 0.498,2.012 0.249,0.953 0.555,2.029 0.895,3.176 0.341,1.152 0.71,2.362 1.136,3.676 2.351,7.259 5.926,16.806 10.177,26.027 1.65,3.59 3.409,7.135 5.223,10.471 5.196,-1.342 10.219,-2.793 15.047,-4.344 -1.272,-2.618 -2.528,-5.309 -3.745,-8.023 -3.981,-8.884 -7.535,-17.931 -9.97,-24.801 -0.752,-2.119 -1.38,-3.996 -1.894,-5.63 -0.321,-1.017 -0.606,-1.959 -0.822,-2.745 -0.039,-0.134 -0.069,-0.257 -0.104,-0.385 -0.223,-0.84 -0.378,-1.529 -0.465,-2.017 -0.089,-0.561 -0.101,-0.866 -0.101,-0.866 0,0 0.024,0.305 0.137,0.862 0.106,0.482 0.291,1.162 0.549,1.994 0.039,0.124 0.075,0.241 0.117,0.372 0.25,0.78 0.579,1.718 0.944,2.727 0.581,1.603 1.282,3.441 2.114,5.508 2.714,6.747 6.637,15.621 10.964,24.285 1.372,2.746 2.786,5.466 4.209,8.097 5.104,-1.69 9.958,-3.507 14.528,-5.446 -0.737,-1.49 -1.474,-2.989 -2.204,-4.497 -4.046,-8.342 -7.905,-16.765 -10.682,-23.135 -1.389,-3.183 -2.505,-5.854 -3.239,-7.745 -0.305,-0.786 -0.528,-1.402 -0.693,-1.897 -0.032,-0.099 -0.081,-0.229 -0.107,-0.315 -0.172,-0.517 -0.189,-0.81 -0.189,-0.81 0,0 0.03,0.291 0.222,0.797 0.031,0.085 0.084,0.211 0.12,0.306 0.188,0.488 0.436,1.092 0.775,1.866 0.815,1.852 2.049,4.469 3.573,7.586 3.052,6.233 7.271,14.47 11.667,22.606 0.815,1.51 1.637,3.012 2.461,4.502 4.958,-2.173 9.549,-4.503 13.715,-6.993 l -16.086,-30.67 17.447,29.851 c 2.097,-1.299 8.694,-6.164 10.549,-7.551 0,0 -11.326,-24.082 -12.605,-26.397 1.64,2.019 20.246,20.517 23.857,19.484 -2.613,-5.554 -22.051,-29.748 -10.077,-21.902 11.704,7.666 16.991,4.482 16.991,4.482 -5.733,-0.542 -13.421,-12.405 -11.795,-16.202 2.711,4.339 9.762,10.71 13.829,5.829 0.462,-0.554 1.291,-8.382 1.384,-11.571 z M 70.71,340.928 c 3.037,-0.088 10.934,5.072 16.603,9.395 -1.44,0.348 -3.247,0.722 -5.084,0.968 -5.59,-0.35 -12.929,-0.355 -18.484,0.16 0.594,-3.132 2.446,-10.302 6.965,-10.523 m -2.314,-7.623 1.657,4.448 c -7.226,0.83 -9.279,11.323 -9.692,14.117 -1.934,0.318 -3.412,0.734 -4.168,1.262 l 10.982,4.678 c 0,0 13.976,-1.869 20.11,-4.136 2.298,-0.524 3.95,-1.042 4.07,-1.078 l 2.883,-0.908 -2.348,-1.909 c -1.113,-0.902 -8.487,-6.803 -14.767,-10.02 z m 112.632,30.668 c -3.067,0.63 -8.653,1.772 -15.792,3.231 -5.463,1.117 -11.828,2.441 -18.653,3.637 0.075,-2.115 0.094,-4.45 0.053,-6.991 5.951,-1.868 11.516,-3.616 16.31,-5.12 4.327,-1.368 8.04,-2.502 10.873,-3.353 2.39,3.066 4.93,6.039 7.209,8.596 m -21.216,-16.658 c -4.106,0.969 -8.803,2.152 -13.803,3.421 -0.173,-2.333 -0.375,-4.739 -0.613,-7.226 4.354,-1.762 8.451,-3.358 12.065,-4.667 3.31,-1.209 6.209,-2.198 8.539,-2.957 -0.985,1.304 -1.502,2.436 -1.348,3.419 0.285,1.808 1.2,3.981 2.505,6.329 -2.147,0.472 -4.615,1.031 -7.345,1.681 m 13.64,7.592 c -2.865,0.594 -6.578,1.385 -10.901,2.349 -4.714,1.042 -10.168,2.249 -15.996,3.532 -0.073,-2.249 -0.187,-4.621 -0.346,-7.106 5.098,-1.813 9.868,-3.504 14.023,-4.9 2.739,-0.928 5.205,-1.735 7.34,-2.412 1.585,2.726 3.656,5.66 5.88,8.537 m 14.925,16.934 -43.722,10.575 c 0.869,-1.4 1.451,-4.309 1.754,-8.364 0.204,-0.053 0.418,-0.098 0.619,-0.154 6.853,-1.782 13.163,-3.638 18.576,-5.213 7.082,-2.059 12.601,-3.664 15.582,-4.534 4.023,4.513 7.191,7.69 7.191,7.69"
           style="fill:#000000;fill-opacity:1;fill-rule:nonzero;stroke:none"
           id="path1235"
           inkscape:connector-curvature="0" /><path
           d="m 561.698,165.672 c -7.836,14.742 -23.071,21.971 -34.033,16.145 -10.965,-5.828 -13.497,-22.498 -5.663,-37.242 7.836,-14.74 23.071,-21.968 34.033,-16.141 10.964,5.825 13.494,22.498 5.663,37.238 M 424.484,126.981 c -10.962,-5.825 -13.495,-22.498 -5.661,-37.24 7.833,-14.742 23.069,-21.971 34.031,-16.143 10.964,5.826 13.498,22.5 5.667,37.239 -7.837,14.742 -23.076,21.971 -34.037,16.144 m 21.589,102.589 c -0.721,1.357 -1.758,2.433 -2.967,3.201 l -4.827,-15.773 c 1.434,-0.041 2.897,0.273 4.25,0.993 4.177,2.219 5.762,7.403 3.544,11.579 m -11.243,-11.738 4.95,16.179 c -1.752,0.263 -3.601,-0.001 -5.287,-0.899 -4.176,-2.218 -5.761,-7.402 -3.544,-11.58 0.898,-1.685 2.279,-2.939 3.881,-3.7 M 561.543,118.07 c -16.361,-8.696 -38.443,0.845 -49.319,21.311 -1.201,2.26 -2.203,4.558 -3.036,6.873 -17.284,27.971 -33.836,45.213 -58.56,56.815 l -0.134,0.249 c -4.312,-30.762 2.652,-57.694 14.322,-81.537 1.27,-1.797 2.457,-3.704 3.53,-5.718 10.878,-20.467 6.428,-44.108 -9.931,-52.803 -16.364,-8.694 -38.444,0.846 -49.32,21.31 -10.875,20.467 -6.429,44.106 9.931,52.802 7.346,3.904 15.843,4.121 23.964,1.335 l -13.848,67.987 c 0,0 -85.614,104.467 -93.987,114.561 -8.375,10.093 -18.163,31.975 -16.012,43.654 L 507.642,173.182 c 0,0 0.004,-0.023 0.013,-0.057 2.245,8.264 7.173,15.159 14.5,19.055 16.364,8.696 38.443,-0.845 49.319,-21.309 10.879,-20.466 6.429,-44.107 -9.931,-52.801 M 415.903,271.549 389.54,402.32 c 13.427,-7.411 23.127,-23.069 27.784,-39.069 4.046,-13.9 39.494,-132.82 39.494,-132.82 z"
           style="fill:#000000;fill-opacity:1;fill-rule:nonzero;stroke:none"
           id="path1237"
           inkscape:connector-curvature="0" /></g></g></g></svg>